<?xml version="1.0" standalone="no"?>
<!DOCTYPE svg PUBLIC "-//W3C//DTD SVG 20010904//EN"
 "http://www.w3.org/TR/2001/REC-SVG-20010904/DTD/svg10.dtd">
<svg version="1.0" xmlns="http://www.w3.org/2000/svg"
 width="1920.000000pt" height="480.000000pt" viewBox="0 0 1920.000000 480.000000"
 preserveAspectRatio="xMidYMid meet">

<g transform="translate(0.000000,480.000000) scale(0.100000,-0.100000)"
fill="#000000" stroke="none">
<path d="M14660 2800 l0 -1210 215 0 215 0 0 94 c0 52 4 97 9 100 4 3 40 -26
80 -64 39 -39 78 -70 85 -70 8 0 16 -3 18 -7 5 -13 121 -66 173 -79 68 -17
351 -6 380 16 6 4 24 10 40 14 29 6 95 35 105 46 3 3 16 10 30 16 38 17 145
105 169 140 12 16 29 39 38 50 22 24 38 52 73 124 25 51 40 105 71 250 17 83
2 288 -31 410 -13 48 -90 213 -102 218 -5 2 -8 8 -8 14 0 18 -138 178 -154
178 -2 0 -30 17 -62 38 -33 21 -79 45 -104 54 -25 8 -63 21 -85 28 -48 16
-286 17 -336 2 -121 -36 -147 -45 -169 -55 -31 -14 -91 -60 -131 -99 -19 -19
-34 -27 -40 -21 -5 5 -10 220 -11 513 l-3 505 -232 3 -233 2 0 -1210z m949
-45 c29 -7 69 -21 88 -30 44 -21 143 -122 143 -146 0 -10 4 -19 8 -19 21 0 46
-108 46 -196 1 -85 -26 -204 -45 -204 -4 0 -9 -10 -13 -23 -6 -27 -77 -107
-94 -107 -7 0 -12 -4 -12 -8 0 -14 -73 -41 -155 -57 -85 -16 -149 -10 -245 23
-70 24 -146 87 -172 145 -7 15 -16 27 -20 27 -4 0 -10 17 -14 38 -4 20 -12 43
-18 51 -16 20 -15 216 2 233 6 6 12 18 12 26 0 54 104 184 175 217 92 44 217
56 314 30z"/>
<path d="M16830 3923 c-14 -3 -27 -8 -30 -12 -3 -3 -21 -17 -41 -30 -42 -29
-77 -77 -101 -140 -19 -48 -24 -136 -9 -145 5 -3 12 -21 15 -39 8 -44 65 -110
124 -145 43 -24 56 -27 145 -27 61 0 100 4 105 11 4 6 17 14 28 18 34 11 94
75 115 123 29 68 26 188 -5 247 -29 54 -72 95 -130 125 -34 16 -60 21 -117 20
-41 -1 -85 -4 -99 -6z"/>
<path d="M956 3751 c-3 -5 -22 -12 -41 -15 -101 -19 -224 -125 -278 -240 -48
-102 -47 -71 -47 -1097 0 -1061 -3 -995 57 -1114 25 -50 146 -175 170 -175 7
0 13 -4 13 -10 0 -5 8 -10 18 -10 10 0 22 -4 27 -9 34 -33 94 -35 1095 -38
609 -2 1003 0 1015 6 11 5 34 12 50 16 49 9 132 56 178 100 53 50 85 94 123
169 l29 59 0 1019 c0 675 -3 1021 -10 1026 -6 4 -21 31 -34 60 -14 28 -28 52
-33 52 -4 0 -8 6 -8 13 0 14 -94 106 -125 123 -149 80 -59 74 -1189 74 -573 0
-1007 -4 -1010 -9z m1198 -247 c3 -9 6 -67 6 -129 l0 -113 42 -7 c119 -21 263
-115 314 -205 10 -19 22 -37 26 -40 12 -10 45 -105 52 -151 16 -106 -43 -159
-178 -159 -100 0 -176 40 -176 92 0 10 -4 26 -9 36 -6 9 -12 28 -15 42 -6 29
-48 77 -88 103 -38 23 -158 24 -196 0 -38 -24 -56 -43 -75 -82 -22 -45 -23
-151 -1 -194 19 -36 67 -87 83 -87 6 0 11 -4 11 -10 0 -5 4 -10 10 -10 5 0 38
-13 72 -29 35 -16 98 -43 141 -60 79 -32 168 -78 177 -91 3 -4 15 -10 28 -14
12 -4 22 -12 22 -17 0 -5 5 -9 10 -9 11 0 58 -39 96 -79 82 -87 123 -272 89
-407 -9 -38 -25 -89 -36 -113 -22 -48 -141 -171 -164 -171 -8 0 -15 -4 -15 -9
0 -5 -8 -11 -17 -14 -10 -3 -49 -17 -88 -31 -38 -14 -87 -26 -107 -26 l-37 0
-3 -117 -3 -118 -88 -3 c-57 -2 -94 1 -103 9 -10 8 -14 39 -14 120 l0 109 -35
0 c-41 0 -142 32 -200 63 -134 72 -208 159 -249 287 -32 104 -29 128 24 180
30 30 32 30 141 30 l109 0 34 -35 c23 -23 37 -49 41 -76 8 -47 51 -125 75
-134 8 -3 31 -14 50 -25 26 -14 55 -19 112 -20 79 0 116 10 156 45 78 66 85
233 13 306 -33 33 -121 78 -231 120 -63 24 -116 47 -118 51 -2 4 -9 8 -16 8
-16 0 -105 46 -127 66 -8 8 -20 14 -25 14 -28 0 -154 143 -154 174 0 9 -4 16
-9 16 -11 0 -33 105 -38 189 -3 41 1 85 12 125 20 75 46 136 57 136 4 0 8 5 8
11 0 16 102 118 118 119 6 0 12 4 12 8 0 8 25 20 111 55 20 8 56 18 80 22 85
13 79 2 79 141 l0 124 99 0 c81 0 100 -3 105 -16z"/>
<path d="M17700 3371 c0 -199 -2 -230 -16 -235 -9 -3 -78 -6 -155 -6 l-139 0
0 -180 0 -180 143 0 c78 0 147 -4 153 -8 9 -5 13 -130 15 -444 3 -332 7 -440
17 -450 6 -6 12 -19 12 -28 0 -18 25 -68 60 -122 22 -32 135 -118 155 -118 4
0 21 -6 38 -14 114 -51 386 -60 582 -19 l40 8 3 189 2 188 -32 -7 c-18 -3 -73
-9 -121 -12 -140 -8 -210 23 -249 109 -15 33 -18 79 -18 373 -1 184 2 340 5
345 4 6 87 10 211 10 l204 0 0 180 0 180 -194 0 c-107 0 -201 3 -210 6 -14 5
-16 36 -16 235 l0 229 -245 0 -245 0 0 -229z"/>
<path d="M5330 3178 c-36 -5 -69 -13 -74 -19 -6 -5 -18 -9 -28 -9 -48 0 -157
-69 -241 -152 -32 -32 -62 -58 -67 -58 -6 0 -10 44 -10 105 l0 105 -215 0
-215 0 0 -1180 0 -1180 233 2 232 3 3 458 c2 355 5 457 15 457 6 0 28 -17 47
-38 31 -32 85 -70 156 -109 12 -6 39 -15 60 -19 22 -3 45 -11 53 -17 20 -16
356 -16 373 1 6 6 18 12 26 12 15 0 68 22 118 48 66 36 176 134 226 202 33 45
88 149 88 166 0 8 4 14 8 14 8 0 18 29 49 145 21 76 24 412 4 490 -13 55 -15
59 -62 160 -82 179 -227 313 -399 370 -30 10 -64 21 -75 26 -22 9 -187 30
-220 28 -11 -1 -49 -6 -85 -11z m109 -430 c28 -6 51 -15 51 -20 0 -4 7 -8 16
-8 18 0 78 -43 116 -85 38 -42 72 -112 88 -185 18 -83 9 -212 -19 -275 -5 -11
-12 -27 -15 -35 -19 -49 -95 -131 -144 -156 -20 -10 -39 -22 -42 -25 -18 -22
-216 -35 -279 -19 -61 16 -121 42 -121 52 0 4 -6 8 -13 8 -22 0 -85 74 -125
149 -51 96 -54 279 -6 374 8 16 14 33 14 39 0 13 57 86 90 115 34 30 97 61
145 72 58 13 186 13 244 -1z"/>
<path d="M7340 3179 c-57 -9 -63 -11 -143 -49 -56 -26 -133 -100 -184 -176
-56 -84 -65 -75 -63 59 1 61 2 118 1 125 -1 9 -57 12 -246 12 l-245 0 0 -805
0 -805 248 0 247 0 -3 317 c-4 434 6 587 43 678 15 39 32 72 37 73 4 2 8 8 8
13 0 17 64 68 115 93 77 37 162 50 278 42 56 -4 117 -9 135 -12 l32 -6 0 215
c0 181 -2 216 -15 221 -29 11 -191 15 -245 5z"/>
<path d="M8450 3180 c-74 -9 -101 -15 -210 -48 -61 -19 -193 -89 -227 -121
-12 -12 -24 -21 -27 -21 -8 0 -96 -89 -96 -97 0 -3 -11 -16 -25 -29 -14 -13
-25 -27 -25 -33 0 -5 -6 -16 -13 -23 -12 -12 -53 -94 -75 -149 -62 -155 -64
-420 -5 -574 48 -127 99 -209 177 -289 75 -76 168 -146 194 -146 5 0 12 -3 14
-7 5 -12 67 -43 85 -43 8 0 29 -6 46 -14 120 -51 331 -59 555 -19 18 3 35 9
38 14 3 5 12 9 21 9 20 0 153 60 171 77 7 7 18 13 23 13 11 0 45 28 122 100
66 62 155 198 182 280 10 30 23 66 29 79 15 33 15 410 0 442 -7 13 -20 51 -30
84 -18 58 -70 156 -86 163 -4 2 -8 8 -8 13 0 42 -257 259 -307 259 -7 0 -13 3
-13 8 0 7 -23 14 -135 43 -121 31 -264 42 -375 29z m241 -425 c24 -9 58 -22
74 -30 37 -17 115 -87 115 -103 0 -7 4 -12 8 -12 8 0 21 -29 53 -115 48 -130
2 -345 -93 -433 -47 -44 -71 -62 -84 -62 -7 0 -14 -4 -16 -10 -10 -30 -232
-45 -316 -22 -75 21 -192 112 -192 150 0 6 -4 12 -8 12 -9 0 -30 47 -48 110
-16 55 -18 191 -3 239 23 76 64 148 111 194 27 26 55 47 63 47 8 0 15 4 15 9
0 5 24 15 53 24 69 20 212 21 268 2z"/>
<path d="M10621 3179 c-41 -5 -79 -13 -85 -19 -5 -5 -17 -10 -26 -10 -19 0
-73 -27 -121 -60 -38 -26 -119 -108 -119 -121 0 -14 -31 -39 -41 -34 -5 4 -9
53 -9 111 l0 104 -220 0 -220 0 0 -805 0 -805 230 0 230 0 0 439 c0 553 7 598
103 708 16 18 35 33 43 33 8 0 14 4 14 8 0 13 94 32 153 32 69 0 125 -29 160
-82 15 -24 30 -54 33 -68 2 -14 9 -39 14 -56 6 -18 10 -234 10 -522 l0 -492
238 0 237 0 -3 422 c-2 270 1 454 8 507 25 191 124 291 288 291 102 0 149 -27
199 -115 l28 -50 3 -527 3 -528 235 0 234 0 -3 553 c-4 534 -9 633 -38 726
-12 41 -69 161 -84 177 -5 6 -19 22 -31 35 -47 54 -93 86 -164 114 -73 29 -80
30 -242 30 -120 0 -171 -3 -180 -12 -6 -7 -20 -13 -29 -13 -17 0 -71 -25 -96
-45 -7 -5 -30 -23 -51 -40 -35 -27 -102 -106 -102 -120 0 -9 -27 -35 -37 -35
-4 0 -17 19 -28 42 -25 52 -138 168 -165 168 -9 0 -64 22 -101 40 -9 5 -42 11
-75 14 -32 4 -72 8 -89 10 -16 2 -63 -1 -104 -5z"/>
<path d="M13330 3178 c-47 -5 -94 -13 -105 -18 -11 -4 -31 -11 -45 -14 -68
-15 -120 -31 -120 -38 0 -5 -5 -8 -12 -8 -27 0 -168 -98 -229 -159 -160 -161
-236 -363 -226 -601 3 -63 10 -137 16 -165 18 -86 35 -145 43 -145 5 0 8 -5 8
-11 0 -18 43 -99 52 -99 4 0 8 -5 8 -11 0 -23 161 -199 182 -199 4 0 13 -6 20
-12 20 -19 46 -34 113 -67 56 -27 87 -38 205 -73 63 -18 358 -18 425 1 235 65
358 141 485 300 36 45 83 125 93 157 3 11 15 44 26 74 42 111 61 284 42 380
-26 126 -64 253 -81 270 -3 3 -14 23 -26 44 -30 55 -124 170 -160 195 -16 11
-39 29 -50 38 -19 18 -44 33 -114 70 -19 10 -37 20 -40 23 -5 6 -79 28 -120
36 -14 3 -34 10 -45 14 -21 10 -198 31 -237 29 -13 -1 -61 -6 -108 -11z m251
-423 c73 -25 92 -37 146 -91 79 -81 106 -146 111 -276 3 -84 0 -119 -14 -165
-10 -32 -21 -60 -25 -63 -3 -3 -9 -15 -13 -27 -4 -13 -12 -23 -17 -23 -5 0 -9
-5 -9 -12 0 -15 -76 -85 -113 -103 -117 -59 -284 -56 -405 6 -107 55 -192 213
-192 355 0 57 21 174 31 174 4 0 10 14 14 30 4 17 10 30 15 30 5 0 11 9 15 19
9 28 82 99 121 117 95 45 249 59 335 29z"/>
<path d="M16690 2340 l0 -800 240 0 240 0 -2 798 -3 797 -237 3 -238 2 0 -800z"/>
</g>
</svg>
